<?xml version="1.0" standalone="no"?>
<!DOCTYPE svg PUBLIC "-//W3C//DTD SVG 20010904//EN"
 "http://www.w3.org/TR/2001/REC-SVG-20010904/DTD/svg10.dtd">
<svg version="1.0" xmlns="http://www.w3.org/2000/svg"
 width="416.000000pt" height="448.000000pt" viewBox="0 0 416.000000 448.000000"
 preserveAspectRatio="xMidYMid meet">

<g transform="translate(0.000000,448.000000) scale(0.100000,-0.100000)"
fill="#000000" stroke="none">
<path d="M2158 4343 c12 -2 32 -2 45 0 12 2 2 4 -23 4 -25 0 -35 -2 -22 -4z"/>
<path d="M2278 4343 c12 -2 32 -2 45 0 12 2 2 4 -23 4 -25 0 -35 -2 -22 -4z"/>
<path d="M2098 4333 c6 -2 18 -2 25 0 6 3 1 5 -13 5 -14 0 -19 -2 -12 -5z"/>
<path d="M2383 4333 c9 -2 23 -2 30 0 6 3 -1 5 -18 5 -16 0 -22 -2 -12 -5z"/>
<path d="M2048 4323 c7 -3 16 -2 19 1 4 3 -2 6 -13 5 -11 0 -14 -3 -6 -6z"/>
<path d="M2438 4323 c7 -3 16 -2 19 1 4 3 -2 6 -13 5 -11 0 -14 -3 -6 -6z"/>
<path d="M1975 4305 c-39 -17 -21 -18 25 0 19 7 28 14 20 14 -8 0 -28 -6 -45
-14z"/>
<path d="M1910 4280 c-8 -5 -10 -10 -5 -10 6 0 17 5 25 10 8 5 11 10 5 10 -5
0 -17 -5 -25 -10z"/>
<path d="M2630 4266 c0 -3 14 -12 30 -21 17 -9 30 -13 30 -11 0 3 -13 12 -30
21 -16 9 -30 13 -30 11z"/>
<path d="M1824 4234 c-18 -14 -18 -15 4 -4 12 6 22 13 22 15 0 8 -5 6 -26 -11z"/>
<path d="M1724 4158 l-19 -23 23 19 c21 18 27 26 19 26 -2 0 -12 -10 -23 -22z"/>
<path d="M2820 4135 c13 -14 26 -25 28 -25 3 0 -5 11 -18 25 -13 14 -26 25
-28 25 -3 0 5 -11 18 -25z"/>
<path d="M1652 4086 c-22 -24 -45 -54 -51 -67 -11 -24 -11 -24 6 1 10 14 35
44 57 68 21 23 36 42 34 42 -3 0 -24 -20 -46 -44z"/>
<path d="M2290 4123 c14 -2 33 -14 44 -26 l18 -22 -14 25 c-10 17 -25 26 -44
27 -25 1 -25 0 -4 -4z"/>
<path d="M2231 4094 c-12 -15 -21 -32 -21 -38 0 -6 6 -2 12 9 6 11 18 28 26
38 8 9 12 17 9 17 -3 0 -15 -12 -26 -26z"/>
<path d="M2899 4053 c24 -29 46 -53 48 -53 7 0 -54 75 -74 91 -10 8 2 -10 26
-38z"/>
<path d="M1919 4013 c-13 -16 -12 -17 4 -4 9 7 17 15 17 17 0 8 -8 3 -21 -13z"/>
<path d="M1869 3973 c-13 -16 -12 -17 4 -4 16 13 21 21 13 21 -2 0 -10 -8 -17
-17z"/>
<path d="M2192 3965 c0 -16 2 -22 5 -12 2 9 2 23 0 30 -3 6 -5 -1 -5 -18z"/>
<path d="M2622 3965 c0 -16 2 -22 5 -12 2 9 2 23 0 30 -3 6 -5 -1 -5 -18z"/>
<path d="M2971 3956 c12 -20 23 -36 25 -36 7 0 -25 58 -36 65 -5 3 -1 -10 11
-29z"/>
<path d="M1843 3938 c-15 -20 -25 -38 -20 -38 3 0 12 11 21 25 17 26 16 35 -1
13z"/>
<path d="M1705 3875 c-15 -50 -16 -87 -4 -162 1 -7 8 -14 14 -17 9 -3 9 5 -1
32 -17 48 -17 76 0 142 19 73 12 77 -9 5z"/>
<path d="M3011 3890 c14 -31 19 -36 19 -24 0 6 -7 19 -16 30 -14 18 -14 18 -3
-6z"/>
<path d="M1806 3865 c-3 -8 -1 -15 4 -15 6 0 10 7 10 15 0 8 -2 15 -4 15 -2 0
-6 -7 -10 -15z"/>
<path d="M1543 3830 c0 -25 2 -35 4 -22 2 12 2 32 0 45 -2 12 -4 2 -4 -23z"/>
<path d="M3041 3825 c1 -19 18 -51 18 -35 0 8 -4 22 -9 30 -5 8 -9 11 -9 5z"/>
<path d="M1802 3800 c0 -14 2 -19 5 -12 2 6 2 18 0 25 -3 6 -5 1 -5 -13z"/>
<path d="M2754 3798 l-19 -23 23 19 c12 11 22 21 22 23 0 8 -8 2 -26 -19z"/>
<path d="M1541 3764 c0 -11 3 -14 6 -6 3 7 2 16 -1 19 -3 4 -6 -2 -5 -13z"/>
<path d="M2678 3773 c7 -3 16 -2 19 1 4 3 -2 6 -13 5 -11 0 -14 -3 -6 -6z"/>
<path d="M1810 3764 c0 -6 7 -19 16 -30 14 -18 14 -18 3 6 -14 31 -19 36 -19
24z"/>
<path d="M2225 3710 c10 -11 20 -20 22 -20 2 0 -2 9 -9 20 -7 11 -17 20 -22
20 -5 0 -1 -9 9 -20z"/>
<path d="M1840 3707 c0 -2 15 -16 33 -33 l32 -29 -29 33 c-28 30 -36 37 -36
29z"/>
<path d="M2140 3706 c0 -2 8 -10 18 -17 15 -13 16 -12 3 4 -13 16 -21 21 -21
13z"/>
<path d="M1560 3692 c0 -16 41 -114 46 -109 2 2 -8 30 -21 63 -14 32 -25 53
-25 46z"/>
<path d="M2679 3673 c-13 -16 -12 -17 4 -4 16 13 21 21 13 21 -2 0 -10 -8 -17
-17z"/>
<path d="M1710 3674 c0 -6 14 -29 31 -50 39 -49 44 -54 31 -28 -6 12 -8 25 -4
29 4 5 1 5 -5 1 -8 -4 -20 5 -33 26 -11 18 -20 28 -20 22z"/>
<path d="M3091 3644 c0 -11 3 -14 6 -6 3 7 2 16 -1 19 -3 4 -6 -2 -5 -13z"/>
<path d="M2793 3643 c9 -2 25 -2 35 0 9 3 1 5 -18 5 -19 0 -27 -2 -17 -5z"/>
<path d="M2210 3636 c0 -2 8 -10 18 -17 15 -13 16 -12 3 4 -13 16 -21 21 -21
13z"/>
<path d="M2857 3619 c4 -13 8 -18 11 -10 2 7 -1 18 -6 23 -8 8 -9 4 -5 -13z"/>
<path d="M1805 3590 c10 -11 20 -20 23 -20 3 0 -3 9 -13 20 -10 11 -20 20 -23
20 -3 0 3 -9 13 -20z"/>
<path d="M1840 3566 c0 -3 9 -10 20 -16 11 -6 20 -8 20 -6 0 3 -9 10 -20 16
-11 6 -20 8 -20 6z"/>
<path d="M1625 3551 c-3 -5 -1 -12 5 -16 5 -3 10 -3 10 1 0 5 21 -12 48 -36
l47 -45 -50 53 c-55 58 -52 56 -60 43z"/>
<path d="M1817 3549 c12 -15 73 -53 73 -46 0 2 -19 17 -42 32 -24 16 -38 22
-31 14z"/>
<path d="M2366 3535 c-11 -8 -15 -15 -9 -15 6 0 16 7 23 15 16 19 11 19 -14 0z"/>
<path d="M2790 3525 c-14 -8 -20 -14 -14 -15 5 0 19 7 30 15 24 18 16 19 -16
0z"/>
<path d="M1655 3500 c10 -11 20 -20 23 -20 3 0 -3 9 -13 20 -10 11 -20 20 -23
20 -3 0 3 -9 13 -20z"/>
<path d="M2280 3500 c-8 -5 -10 -10 -5 -10 6 0 17 5 25 10 8 5 11 10 5 10 -5
0 -17 -5 -25 -10z"/>
<path d="M2678 3493 c6 -2 18 -2 25 0 6 3 1 5 -13 5 -14 0 -19 -2 -12 -5z"/>
<path d="M2817 3473 c-27 -13 -46 -27 -43 -30 5 -6 96 44 96 52 0 6 3 7 -53
-22z"/>
<path d="M1580 3486 c0 -11 40 -86 45 -86 3 0 -4 19 -16 43 -23 45 -29 54 -29
43z"/>
<path d="M2078 3483 c7 -3 16 -2 19 1 4 3 -2 6 -13 5 -11 0 -14 -3 -6 -6z"/>
<path d="M2390 3486 c0 -2 7 -7 16 -10 8 -3 12 -2 9 4 -6 10 -25 14 -25 6z"/>
<path d="M1680 3467 c0 -2 26 -26 57 -53 31 -27 54 -44 50 -37 -9 14 -107 97
-107 90z"/>
<path d="M1978 3463 c7 -3 16 -2 19 1 4 3 -2 6 -13 5 -11 0 -14 -3 -6 -6z"/>
<path d="M2488 3463 c7 -3 16 -2 19 1 4 3 -2 6 -13 5 -11 0 -14 -3 -6 -6z"/>
<path d="M1740 3456 c0 -2 8 -10 18 -17 15 -13 16 -12 3 4 -13 16 -21 21 -21
13z"/>
<path d="M2563 3453 c9 -2 23 -2 30 0 6 3 -1 5 -18 5 -16 0 -22 -2 -12 -5z"/>
<path d="M2040 3447 c7 -8 110 -46 110 -41 0 6 -51 28 -90 39 -14 4 -23 5 -20
2z"/>
<path d="M2673 3443 c9 -2 25 -2 35 0 9 3 1 5 -18 5 -19 0 -27 -2 -17 -5z"/>
<path d="M2718 3423 c7 -3 16 -2 19 1 4 3 -2 6 -13 5 -11 0 -14 -3 -6 -6z"/>
<path d="M2613 3413 c15 -2 37 -2 50 0 12 2 0 4 -28 4 -27 0 -38 -2 -22 -4z"/>
<path d="M3103 3370 c0 -25 2 -35 4 -22 2 12 2 32 0 45 -2 12 -4 2 -4 -23z"/>
<path d="M1630 3386 c0 -2 8 -10 18 -17 15 -13 16 -12 3 4 -13 16 -21 21 -21
13z"/>
<path d="M2200 3376 c0 -3 9 -10 20 -16 11 -6 20 -8 20 -6 0 3 -9 10 -20 16
-11 6 -20 8 -20 6z"/>
<path d="M1800 3366 c0 -2 14 -14 30 -26 17 -12 30 -19 30 -16 0 2 -13 14 -30
26 -16 12 -30 19 -30 16z"/>
<path d="M2295 3338 c17 -12 48 -39 71 -58 29 -25 26 -21 -8 13 -27 26 -59 52
-71 58 -13 6 -10 1 8 -13z"/>
<path d="M2250 3346 c0 -2 8 -10 18 -17 15 -13 16 -12 3 4 -13 16 -21 21 -21
13z"/>
<path d="M1685 3324 c6 -5 28 -25 50 -44 l40 -35 -30 33 c-17 19 -39 38 -50
44 -11 6 -15 7 -10 2z"/>
<path d="M2325 3280 c21 -22 41 -40 44 -40 3 0 -13 18 -34 40 -21 22 -41 40
-44 40 -3 0 13 -18 34 -40z"/>
<path d="M3092 3290 c0 -14 2 -19 5 -12 2 6 2 18 0 25 -3 6 -5 1 -5 -13z"/>
<path d="M1920 3286 c0 -3 9 -10 20 -16 11 -6 20 -8 20 -6 0 3 -9 10 -20 16
-11 6 -20 8 -20 6z"/>
<path d="M2050 3276 c0 -3 9 -10 20 -16 11 -6 20 -8 20 -6 0 3 -9 10 -20 16
-11 6 -20 8 -20 6z"/>
<path d="M1780 3246 c0 -2 8 -10 18 -17 15 -13 16 -12 3 4 -13 16 -21 21 -21
13z"/>
<path d="M2390 3201 c13 -18 36 -56 51 -85 16 -28 29 -46 29 -40 0 14 -67 125
-87 144 -9 8 -6 0 7 -19z"/>
<path d="M2425 3206 c10 -14 19 -26 22 -26 7 0 -17 39 -28 46 -6 3 -3 -5 6
-20z"/>
<path d="M3066 3194 c-4 -14 -5 -28 -3 -31 3 -2 8 8 11 23 4 14 5 28 3 31 -3
2 -8 -8 -11 -23z"/>
<path d="M2050 3207 c0 -2 19 -17 43 -32 23 -16 37 -22 30 -14 -12 15 -73 53
-73 46z"/>
<path d="M2165 3203 c54 -53 133 -120 110 -93 -16 19 -37 40 -45 47 -21 18
-77 58 -65 46z"/>
<path d="M1895 3165 c11 -9 29 -21 40 -26 l20 -10 -20 16 c-11 9 -29 21 -40
26 l-20 10 20 -16z"/>
<path d="M2467 3130 c9 -22 18 -38 20 -36 5 5 -24 76 -31 76 -2 0 3 -18 11
-40z"/>
<path d="M2155 3130 c10 -11 20 -20 23 -20 3 0 -3 9 -13 20 -10 11 -20 20 -23
20 -3 0 3 -9 13 -20z"/>
<path d="M2230 3068 c24 -27 45 -48 47 -48 8 0 0 9 -44 50 l-48 45 45 -47z"/>
<path d="M3007 3045 c-15 -30 -25 -55 -22 -55 7 0 57 101 53 106 -2 2 -16 -21
-31 -51z"/>
<path d="M2075 3030 c33 -33 62 -60 64 -60 3 0 -21 27 -54 60 -33 33 -62 60
-64 60 -3 0 21 -27 54 -60z"/>
<path d="M3056 3045 c-9 -26 -7 -32 5 -12 6 10 9 21 6 23 -2 3 -7 -2 -11 -11z"/>
<path d="M1320 3035 c0 -4 11 -20 25 -37 14 -16 25 -26 25 -23 0 4 -11 20 -25
37 -14 16 -25 26 -25 23z"/>
<path d="M2331 3020 c14 -31 19 -36 19 -24 0 6 -7 19 -16 30 -14 18 -14 18 -3
-6z"/>
<path d="M2481 3014 c0 -11 3 -14 6 -6 3 7 2 16 -1 19 -3 4 -6 -2 -5 -13z"/>
<path d="M2498 2995 c-4 -22 -7 -67 -7 -100 l1 -60 10 55 c5 30 7 75 6 100
l-3 45 -7 -40z"/>
<path d="M2307 2961 c16 -27 30 -48 32 -46 4 5 -48 95 -54 95 -3 0 7 -22 22
-49z"/>
<path d="M2350 2975 c0 -5 5 -17 10 -25 5 -8 10 -10 10 -5 0 6 -5 17 -10 25
-5 8 -10 11 -10 5z"/>
<path d="M2960 2960 c-6 -11 -8 -20 -6 -20 3 0 10 9 16 20 6 11 8 20 6 20 -3
0 -10 -9 -16 -20z"/>
<path d="M3005 2940 c-9 -16 -13 -30 -11 -30 3 0 12 14 21 30 9 17 13 30 11
30 -3 0 -12 -13 -21 -30z"/>
<path d="M2155 2936 c10 -14 19 -26 22 -26 7 0 -17 39 -28 46 -6 3 -3 -5 6
-20z"/>
<path d="M1372 2900 c0 -19 2 -27 5 -17 2 9 2 25 0 35 -3 9 -5 1 -5 -18z"/>
<path d="M2377 2885 c3 -27 7 -52 9 -54 7 -8 2 54 -6 79 -6 17 -7 9 -3 -25z"/>
<path d="M2186 2887 c3 -10 9 -15 12 -12 3 3 0 11 -7 18 -10 9 -11 8 -5 -6z"/>
<path d="M2894 2863 c-15 -20 -23 -33 -16 -29 13 8 56 66 49 66 -3 0 -17 -17
-33 -37z"/>
<path d="M2965 2874 c-9 -15 -12 -23 -6 -20 11 7 35 46 28 46 -3 0 -12 -12
-22 -26z"/>
<path d="M1723 2863 c9 -2 25 -2 35 0 9 3 1 5 -18 5 -19 0 -27 -2 -17 -5z"/>
<path d="M2352 2850 c0 -14 2 -19 5 -12 2 6 2 18 0 25 -3 6 -5 1 -5 -13z"/>
<path d="M1382 2831 c2 -8 15 -21 29 -30 19 -11 21 -12 9 0 -8 8 -21 21 -29
29 -11 12 -12 12 -9 1z"/>
<path d="M1570 2820 c-19 -11 -30 -19 -25 -19 6 0 26 8 45 19 19 11 31 19 25
19 -5 0 -26 -8 -45 -19z"/>
<path d="M2211 2824 c0 -11 3 -14 6 -6 3 7 2 16 -1 19 -3 4 -6 -2 -5 -13z"/>
<path d="M2871 2757 c-45 -49 -55 -64 -27 -37 44 41 112 120 104 120 -1 0 -36
-37 -77 -83z"/>
<path d="M2363 2770 c0 -30 2 -43 4 -27 2 15 2 39 0 55 -2 15 -4 2 -4 -28z"/>
<path d="M2383 2775 c0 -27 2 -38 4 -22 2 15 2 37 0 50 -2 12 -4 0 -4 -28z"/>
<path d="M2790 2747 c-41 -39 -93 -87 -115 -105 -22 -18 -13 -13 20 12 53 39
187 166 175 166 -3 0 -39 -33 -80 -73z"/>
<path d="M1920 2785 c13 -14 26 -25 28 -25 3 0 -5 11 -18 25 -13 14 -26 25
-28 25 -3 0 5 -11 18 -25z"/>
<path d="M1453 2783 c9 -2 23 -2 30 0 6 3 -1 5 -18 5 -16 0 -22 -2 -12 -5z"/>
<path d="M2221 2774 c0 -11 3 -14 6 -6 3 7 2 16 -1 19 -3 4 -6 -2 -5 -13z"/>
<path d="M2347 2653 c-15 -32 -34 -69 -43 -83 l-16 -25 21 25 c24 26 75 130
68 136 -2 3 -16 -21 -30 -53z"/>
<path d="M2759 2653 l-24 -28 28 24 c25 23 32 31 24 31 -2 0 -14 -12 -28 -27z"/>
<path d="M2221 2654 c0 -11 3 -14 6 -6 3 7 2 16 -1 19 -3 4 -6 -2 -5 -13z"/>
<path d="M1992 2635 c0 -16 2 -22 5 -12 2 9 2 23 0 30 -3 6 -5 -1 -5 -18z"/>
<path d="M2709 2613 c-13 -16 -12 -17 4 -4 9 7 17 15 17 17 0 8 -8 3 -21 -13z"/>
<path d="M2206 2605 c-9 -26 -7 -32 5 -12 6 10 9 21 6 23 -2 3 -7 -2 -11 -11z"/>
<path d="M1992 2575 c0 -16 2 -22 5 -12 2 9 2 23 0 30 -3 6 -5 -1 -5 -18z"/>
<path d="M2652 2576 c-46 -33 -53 -43 -14 -20 19 10 38 25 44 32 15 17 8 14
-30 -12z"/>
<path d="M2500 2535 c-36 -19 -61 -34 -57 -35 10 0 127 59 127 65 0 7 2 8 -70
-30z"/>
<path d="M2510 2495 c-36 -19 -61 -34 -57 -35 10 0 127 59 127 65 0 7 2 8 -70
-30z"/>
<path d="M2125 2478 l-40 -43 43 40 c39 36 47 45 39 45 -2 0 -21 -19 -42 -42z"/>
<path d="M1957 2477 l-17 -32 20 24 c17 20 26 41 18 41 -2 0 -11 -15 -21 -33z"/>
<path d="M2258 2443 c7 -3 16 -2 19 1 4 3 -2 6 -13 5 -11 0 -14 -3 -6 -6z"/>
<path d="M2218 2433 c7 -3 16 -2 19 1 4 3 -2 6 -13 5 -11 0 -14 -3 -6 -6z"/>
<path d="M2158 2423 c7 -3 16 -2 19 1 4 3 -2 6 -13 5 -11 0 -14 -3 -6 -6z"/>
<path d="M1890 2410 c-9 -6 -10 -10 -3 -10 6 0 15 5 18 10 8 12 4 12 -15 0z"/>
<path d="M2268 2403 c7 -3 16 -2 19 1 4 3 -2 6 -13 5 -11 0 -14 -3 -6 -6z"/>
<path d="M1715 2390 c30 -8 132 -13 124 -6 -2 2 -38 6 -79 9 -44 3 -63 2 -45
-3z"/>
<path d="M2218 2393 c6 -2 18 -2 25 0 6 3 1 5 -13 5 -14 0 -19 -2 -12 -5z"/>
<path d="M2163 2383 c9 -2 23 -2 30 0 6 3 -1 5 -18 5 -16 0 -22 -2 -12 -5z"/>
<path d="M1888 2373 c23 -2 59 -2 80 0 20 2 1 4 -43 4 -44 0 -61 -2 -37 -4z"/>
<path d="M2058 2373 c12 -2 32 -2 45 0 12 2 2 4 -23 4 -25 0 -35 -2 -22 -4z"/>
<path d="M3310 2318 c-14 -5 -47 -16 -75 -23 -33 -9 -41 -14 -24 -14 14 -1 30
-6 37 -13 15 -15 17 -268 2 -268 -6 0 -13 7 -16 15 -15 38 -138 44 -206 9 -86
-43 -131 -117 -132 -214 0 -124 69 -201 188 -208 69 -5 111 10 152 55 l24 26
0 -42 0 -41 73 0 c69 1 71 1 45 16 -16 8 -29 16 -30 17 -1 1 -5 158 -8 348
l-5 346 -25 -9z m17 -40 c-3 -7 -5 -2 -5 12 0 14 2 19 5 13 2 -7 2 -19 0 -25z
m0 -440 c-1 -79 -3 -15 -3 142 0 157 2 221 3 143 2 -79 2 -207 0 -285z m-110
171 c17 -11 34 -26 37 -35 3 -9 6 -72 6 -140 0 -138 -7 -158 -65 -194 -97 -60
-198 17 -211 161 -8 81 8 141 49 186 50 54 116 62 184 22z m60 -121 c-3 -8 -6
-5 -6 6 -1 11 2 17 5 13 3 -3 4 -12 1 -19z m-310 -25 c-3 -10 -5 -4 -5 12 0
17 2 24 5 18 2 -7 2 -21 0 -30z m-50 -70 c-3 -10 -5 -2 -5 17 0 19 2 27 5 18
2 -10 2 -26 0 -35z m50 -35 c-3 -8 -6 -5 -6 6 -1 11 2 17 5 13 3 -3 4 -12 1
-19z"/>
<path d="M494 2203 c-25 -55 -50 -119 -158 -398 -57 -150 -73 -176 -115 -190
-29 -9 -18 -11 74 -11 63 0 96 3 81 7 -63 17 -70 54 -32 154 l23 60 127 3 126
3 20 -45 c32 -76 50 -135 44 -149 -2 -7 -17 -18 -32 -23 -21 -8 -1 -10 88 -12
l115 -2 -31 19 c-35 21 -35 21 -182 390 -53 134 -103 246 -110 249 -7 2 -23
-19 -38 -55z m112 -335 c5 -17 -3 -18 -110 -18 -64 0 -116 3 -116 8 0 4 25 75
57 158 l57 151 53 -140 c29 -78 55 -149 59 -159z"/>
<path d="M987 2033 c-54 -14 -57 -16 -35 -27 23 -11 23 -14 26 -194 l2 -182
-25 -10 c-14 -5 -25 -12 -25 -15 0 -3 39 -5 88 -4 82 0 86 1 65 16 -22 15 -23
21 -23 168 l0 153 41 35 c51 44 81 52 119 32 43 -22 52 -66 48 -235 -3 -143
-3 -145 -28 -157 -22 -11 -13 -12 65 -11 68 1 84 4 67 11 -24 11 -23 3 -26
234 -1 85 1 93 24 118 30 32 71 55 100 55 12 0 35 -13 51 -29 l29 -29 0 -166
0 -165 -27 -15 c-27 -14 -23 -15 67 -15 76 0 91 2 75 11 -11 6 -23 16 -27 22
-4 6 -8 78 -8 159 0 162 -10 203 -54 232 -61 40 -127 29 -200 -36 l-35 -30
-16 30 c-30 58 -111 78 -170 43 -17 -11 -45 -33 -63 -51 l-32 -33 0 51 c0 28
-3 51 -7 50 -5 -1 -34 -8 -66 -16z m20 -310 c-1 -49 -3 -9 -3 87 0 96 2 136 3
88 2 -49 2 -127 0 -175z m280 75 c-2 -13 -4 -3 -4 22 0 25 2 35 4 23 2 -13 2
-33 0 -45z m40 -95 c-2 -32 -3 -8 -3 52 0 61 1 87 3 58 2 -29 2 -78 0 -110z
m-284 -80 c-7 -2 -21 -2 -30 0 -10 3 -4 5 12 5 17 0 24 -2 18 -5z"/>
<path d="M1908 2041 c-66 -22 -120 -73 -104 -100 15 -24 46 -11 65 27 27 53
43 64 96 64 65 1 87 -23 93 -101 5 -65 7 -62 -68 -76 -47 -9 -129 -44 -160
-68 -54 -41 -66 -107 -27 -152 45 -52 170 -41 227 20 29 31 40 32 40 2 0 -54
84 -77 131 -36 l24 20 -24 -12 c-21 -10 -27 -9 -43 11 -16 19 -18 42 -18 169
0 157 -6 180 -53 215 -30 22 -131 32 -179 17z m152 -265 c-6 -96 -17 -116 -85
-142 -39 -14 -45 -14 -73 0 -35 18 -42 33 -42 90 0 62 31 87 150 121 25 7 47
14 50 14 3 1 3 -37 0 -83z"/>
<path d="M2335 2031 l-60 -18 30 -14 30 -14 3 -177 2 -177 -27 -15 c-27 -14
-23 -15 66 -16 l94 0 -27 25 c-26 24 -26 26 -26 160 0 155 8 179 70 214 52 29
86 27 121 -8 l29 -29 0 -171 c0 -142 -2 -171 -14 -171 -8 0 -17 -4 -20 -8 -3
-5 34 -9 82 -9 48 -1 79 1 70 4 -25 6 -27 21 -32 205 -3 95 -10 177 -16 189
-7 11 -27 27 -45 35 -71 29 -150 13 -207 -43 l-38 -37 0 31 c0 35 -9 64 -19
62 -3 -1 -33 -9 -66 -18z m372 -283 c-1 -40 -3 -8 -3 72 0 80 2 112 3 73 2
-40 2 -106 0 -145z m-300 180 c-3 -8 -6 -5 -6 6 -1 11 2 17 5 13 3 -3 4 -12 1
-19z m260 -105 c-3 -10 -5 -4 -5 12 0 17 2 24 5 18 2 -7 2 -21 0 -30z m50
-199 c-3 -3 -12 -4 -19 -1 -8 3 -5 6 6 6 11 1 17 -2 13 -5z"/>
<path d="M3632 2037 c-52 -19 -104 -66 -100 -90 2 -14 11 -23 26 -25 18 -3 26
5 41 42 23 51 44 66 99 66 28 0 45 -7 63 -26 23 -24 24 -34 27 -161 3 -130 3
-136 -20 -160 -96 -103 -232 -40 -176 82 12 28 89 69 151 80 20 4 37 11 37 15
0 13 -116 -17 -175 -46 -104 -49 -135 -125 -76 -185 25 -25 37 -29 82 -29 61
0 129 29 159 67 l20 26 0 -24 c0 -14 7 -35 16 -48 15 -20 23 -23 66 -19 27 3
55 11 61 18 10 10 9 12 -5 7 -9 -3 -24 0 -35 8 -16 12 -19 33 -23 172 -6 178
-14 203 -75 229 -41 17 -117 17 -163 1z m175 -99 c-3 -7 -5 -2 -5 12 0 14 2
19 5 13 2 -7 2 -19 0 -25z m50 -235 c-2 -37 -3 -9 -3 62 0 72 1 102 3 68 2
-34 2 -93 0 -130z m-22 -82 c-6 -5 -25 10 -25 20 0 5 6 4 14 -3 8 -7 12 -15
11 -17z"/>
<path d="M1078 1250 c-2 -73 0 -100 9 -100 8 0 13 27 15 87 l3 88 29 -73 c16
-40 33 -75 37 -78 5 -3 26 30 48 73 l40 78 1 -87 c0 -64 3 -88 13 -88 9 0 11
25 9 100 -4 123 -17 129 -64 31 -18 -39 -36 -70 -39 -70 -4 -1 -20 31 -38 69
-45 101 -59 94 -63 -30z"/>
<path d="M1385 1250 c0 -73 3 -100 13 -100 9 0 12 27 12 100 0 73 -3 100 -12
100 -10 0 -13 -27 -13 -100z"/>
<path d="M1508 1250 c-2 -80 0 -100 11 -100 11 0 13 19 9 92 -4 85 -3 90 11
68 66 -99 114 -160 126 -160 11 0 14 22 17 100 2 75 0 100 -9 100 -10 0 -13
-25 -13 -92 l0 -92 -62 92 c-35 50 -68 92 -75 92 -8 0 -13 -31 -15 -100z"/>
<path d="M1790 1250 l0 -100 49 0 c71 0 99 14 117 57 13 30 14 44 5 75 -15 47
-51 68 -121 68 l-50 0 0 -100z m134 58 c22 -31 21 -101 -2 -121 -10 -9 -39
-18 -65 -21 l-47 -4 0 84 0 84 49 0 c40 0 53 -4 65 -22z"/>
<path d="M2235 1341 c-26 -11 -51 -40 -58 -69 -8 -35 11 -88 38 -106 30 -20
95 -21 121 -1 23 17 3 20 -27 4 -76 -40 -148 73 -88 137 24 26 62 29 114 10
17 -7 17 -5 -4 13 -24 22 -61 26 -96 12z"/>
<path d="M2483 1333 c-4 -10 -21 -55 -39 -100 -23 -59 -28 -83 -19 -83 7 0 16
14 20 31 7 30 9 31 44 25 20 -3 44 -6 53 -6 10 0 20 -10 24 -25 3 -14 12 -25
20 -25 8 0 14 1 14 3 0 2 -43 106 -77 185 -8 18 -33 15 -40 -5z m66 -105 c1
-5 -19 -8 -44 -8 -25 0 -45 2 -45 4 0 2 6 19 14 37 7 19 17 43 21 54 6 17 11
13 31 -30 12 -27 23 -53 23 -57z"/>
<path d="M2685 1250 c0 -74 3 -100 12 -100 8 0 13 14 13 40 0 36 3 40 25 40
18 0 32 -11 50 -40 14 -22 32 -40 41 -40 12 0 8 10 -15 39 l-32 40 26 25 c14
14 25 31 25 38 -1 34 -42 58 -102 58 l-43 0 0 -100z m109 65 c27 -27 6 -59
-41 -63 l-41 -3 -4 40 -4 41 38 0 c20 0 43 -7 52 -15z"/>
<path d="M2930 1250 l0 -100 71 0 c49 0 68 3 63 11 -4 7 -27 10 -60 7 l-54 -5
0 39 0 38 50 0 c30 0 50 4 50 11 0 8 -16 10 -50 5 l-50 -7 0 41 0 40 55 0 c30
0 55 5 55 10 0 6 -28 10 -65 10 l-65 0 0 -100z"/>
<path d="M533 1263 c70 -2 184 -2 255 0 70 1 12 3 -128 3 -140 0 -198 -2 -127
-3z"/>
<path d="M3302 1263 c59 -2 158 -2 220 0 62 1 14 3 -107 3 -121 0 -172 -2
-113 -3z"/>
<path d="M1041 815 c0 -66 4 -95 12 -95 8 0 11 15 9 43 -4 49 13 71 50 65 20
-3 23 -9 26 -55 2 -29 7 -53 13 -53 13 0 11 104 -3 118 -15 15 -54 16 -63 2
-13 -22 -25 -8 -25 30 0 22 -4 40 -9 40 -6 0 -10 -42 -10 -95z"/>
<path d="M1388 815 c-2 -79 -1 -95 12 -95 13 0 14 16 12 95 -2 52 -7 95 -12
95 -5 0 -10 -43 -12 -95z"/>
<path d="M458 810 c-3 -76 -1 -90 12 -90 12 0 15 8 12 35 -4 33 -2 35 25 35
41 0 73 26 73 59 0 32 -31 51 -85 51 l-34 0 -3 -90z m76 70 c37 -14 36 -55 -1
-67 -41 -15 -53 -6 -53 38 0 42 8 47 54 29z"/>
<path d="M1796 893 c-11 -11 -6 -23 9 -23 8 0 15 4 15 9 0 13 -16 22 -24 14z"/>
<path d="M2132 888 c-15 -15 -16 -45 -1 -53 7 -5 3 -14 -11 -27 -51 -48 8
-112 70 -76 25 14 31 14 41 2 6 -8 18 -14 26 -14 10 0 8 6 -8 19 -19 16 -22
22 -11 32 6 7 12 20 12 28 0 12 -5 10 -18 -7 l-18 -23 -23 25 -23 24 21 11
c37 21 20 71 -24 71 -12 0 -26 -5 -33 -12z m56 -10 c7 -7 8 -17 1 -30 -12 -22
-32 -23 -49 -3 -23 28 21 60 48 33z m-7 -94 c24 -25 24 -26 5 -40 -24 -17 -38
-18 -54 -2 -20 20 -8 68 18 68 4 0 17 -12 31 -26z"/>
<path d="M2385 810 l0 -90 56 0 c59 0 79 11 79 45 0 32 -31 55 -73 55 -34 0
-37 2 -37 29 0 36 11 44 50 36 25 -5 30 -12 30 -36 0 -16 5 -29 10 -29 6 0 10
13 10 30 0 36 -23 50 -82 50 l-43 0 0 -90z m110 -45 c0 -28 -3 -30 -42 -33
l-43 -3 0 36 0 36 43 -3 c39 -3 42 -5 42 -33z"/>
<path d="M3130 885 c7 -9 15 -13 17 -11 7 7 -7 26 -19 26 -6 0 -6 -6 2 -15z"/>
<path d="M3165 890 c3 -5 11 -10 16 -10 6 0 7 5 4 10 -3 6 -11 10 -16 10 -6 0
-7 -4 -4 -10z"/>
<path d="M2570 880 c0 -5 7 -10 15 -10 8 0 15 5 15 10 0 6 -7 10 -15 10 -8 0
-15 -4 -15 -10z"/>
<path d="M3265 873 c-4 -13 -12 -23 -19 -23 -8 0 -7 -3 1 -8 6 -4 13 -32 15
-62 3 -54 4 -55 36 -58 17 -2 32 1 32 6 0 5 -10 8 -22 8 -21 -1 -23 4 -26 53
-3 50 -2 53 17 48 12 -3 24 -1 27 4 3 5 -6 9 -20 9 -18 0 -26 6 -29 23 l-4 22
-8 -22z"/>
<path d="M621 832 c-13 -24 3 -47 42 -61 36 -14 36 -41 -1 -41 -15 0 -33 5
-40 12 -9 9 -12 9 -12 0 0 -19 46 -33 75 -22 40 15 31 47 -20 71 -16 8 -30 21
-30 29 0 22 37 25 53 4 13 -18 14 -18 10 1 -5 28 -63 34 -77 7z"/>
<path d="M755 801 c40 -81 41 -97 10 -126 -19 -17 -23 -25 -13 -25 22 0 33 16
72 110 41 95 39 90 27 90 -5 0 -11 -8 -14 -17 -3 -10 -12 -36 -21 -58 l-14
-40 -12 30 c-24 64 -35 85 -47 85 -7 0 -2 -19 12 -49z"/>
<path d="M910 830 c-24 -24 -26 -72 -4 -94 17 -18 79 -22 89 -6 4 6 -6 7 -24
4 -40 -8 -61 10 -61 52 0 44 30 63 66 39 20 -13 24 -13 24 -1 0 31 -61 35 -90
6z"/>
<path d="M1230 830 c-25 -25 -26 -72 -2 -93 25 -22 75 -21 95 1 37 41 6 112
-48 112 -14 0 -34 -9 -45 -20z m74 -6 c19 -18 21 -65 4 -82 -7 -7 -21 -12 -33
-12 -44 0 -61 56 -28 92 20 22 37 23 57 2z"/>
<path d="M1475 825 c-29 -28 -31 -46 -9 -80 16 -25 65 -34 90 -17 39 25 36 90
-5 111 -30 17 -50 13 -76 -14z m69 2 c10 -8 19 -26 19 -41 0 -38 -25 -60 -57
-52 -22 5 -26 12 -26 46 0 27 6 42 18 49 22 14 25 13 46 -2z"/>
<path d="M1636 828 c-9 -12 -16 -26 -16 -30 0 -16 34 -38 59 -38 36 0 55 22
47 55 -5 19 -3 23 9 19 8 -4 15 -1 15 5 0 7 -20 11 -49 11 -40 0 -53 -4 -65
-22z m70 -14 c7 -28 -9 -46 -36 -41 -16 2 -25 30 -16 53 9 25 45 17 52 -12z"/>
<path d="M1790 785 c0 -45 4 -65 13 -65 9 0 11 18 9 65 -5 84 -22 84 -22 0z"/>
<path d="M1882 830 c-26 -24 -29 -72 -6 -94 17 -17 89 -22 99 -7 3 6 -9 7 -30
4 -37 -6 -65 9 -65 33 0 10 14 14 50 14 42 0 50 3 50 18 0 24 -31 52 -56 52
-11 0 -30 -9 -42 -20z m66 -2 c22 -22 12 -34 -28 -35 -44 -2 -48 2 -23 29 19
21 34 23 51 6z"/>
<path d="M2570 785 c0 -45 4 -65 13 -65 9 0 11 18 9 65 -5 84 -22 84 -22 0z"/>
<path d="M2662 834 c-28 -19 -30 -74 -4 -97 23 -21 75 -22 92 -3 10 13 7 13
-20 3 -34 -13 -63 -2 -68 27 -3 13 6 16 47 16 43 0 51 3 51 18 0 24 -31 52
-56 52 -11 0 -30 -7 -42 -16z m68 -9 c18 -21 9 -27 -36 -23 -36 3 -37 4 -20
21 21 21 40 22 56 2z"/>
<path d="M2810 785 c0 -46 4 -65 13 -65 8 0 11 13 9 43 -4 49 13 71 50 65 20
-3 23 -9 26 -55 2 -29 8 -53 13 -53 6 0 9 24 7 56 -4 68 -21 85 -68 67 -16 -6
-30 -7 -30 -2 0 5 -4 9 -10 9 -6 0 -10 -28 -10 -65z"/>
<path d="M3110 830 c-41 -41 -14 -110 42 -110 33 0 58 9 58 21 0 6 -8 5 -19
-1 -27 -14 -47 -13 -65 6 -26 26 -18 34 34 34 42 0 50 3 50 18 0 25 -31 52
-58 52 -12 0 -31 -9 -42 -20z m70 -5 c16 -19 14 -21 -32 -28 -41 -6 -47 2 -22
27 20 20 38 20 54 1z"/>
<path d="M3370 785 c0 -46 4 -65 13 -65 9 0 11 12 9 40 -5 44 10 70 39 70 11
0 19 5 19 10 0 14 -33 13 -48 -2 -9 -9 -12 -9 -12 0 0 7 -4 12 -10 12 -6 0
-10 -28 -10 -65z"/>
<path d="M3490 830 c-25 -25 -26 -72 -1 -94 22 -20 77 -24 93 -8 8 8 2 10 -25
5 -45 -7 -67 9 -67 48 0 46 41 74 68 47 24 -24 14 -37 -23 -31 -23 4 -35 2
-35 -6 0 -6 18 -11 45 -11 37 0 45 3 45 18 0 25 -31 52 -58 52 -12 0 -31 -9
-42 -20z"/>
<path d="M2975 790 c3 -5 22 -10 41 -10 19 0 34 5 34 10 0 6 -18 10 -41 10
-24 0 -38 -4 -34 -10z"/>
<path d="M1630 739 c0 -11 -5 -30 -11 -41 -9 -18 -8 -24 7 -35 40 -30 124 -4
124 38 0 22 -10 27 -60 33 -19 2 -36 8 -38 15 -6 19 -22 12 -22 -10z m97 -35
c7 -19 -20 -44 -47 -44 -27 0 -52 24 -44 43 9 23 82 24 91 1z"/>
</g>
</svg>
